<mxfile host="app.diagrams.net" agent="Mozilla/5.0 (Macintosh; Intel Mac OS X 10_15_7) AppleWebKit/605.1.15 (KHTML, like Gecko) Version/17.6 Safari/605.1.15" version="24.7.16">
  <diagram name="Page-1" id="LnozOelRTaHDIaQJMs7v">
    <mxGraphModel dx="1038" dy="827" grid="1" gridSize="10" guides="1" tooltips="1" connect="1" arrows="1" fold="1" page="1" pageScale="1" pageWidth="1400" pageHeight="850" math="0" shadow="0">
      <root>
        <mxCell id="0" />
        <mxCell id="1" parent="0" />
        <mxCell id="K16QC3MpvvCwEl2vAyFW-4" value="" style="edgeStyle=orthogonalEdgeStyle;rounded=0;orthogonalLoop=1;jettySize=auto;html=1;" edge="1" parent="1" source="K16QC3MpvvCwEl2vAyFW-1" target="K16QC3MpvvCwEl2vAyFW-3">
          <mxGeometry relative="1" as="geometry" />
        </mxCell>
        <mxCell id="K16QC3MpvvCwEl2vAyFW-1" value="START" style="rounded=1;whiteSpace=wrap;html=1;" vertex="1" parent="1">
          <mxGeometry x="340" y="10" width="180" height="60" as="geometry" />
        </mxCell>
        <mxCell id="K16QC3MpvvCwEl2vAyFW-6" value="" style="edgeStyle=orthogonalEdgeStyle;rounded=0;orthogonalLoop=1;jettySize=auto;html=1;" edge="1" parent="1" source="K16QC3MpvvCwEl2vAyFW-3" target="K16QC3MpvvCwEl2vAyFW-5">
          <mxGeometry relative="1" as="geometry" />
        </mxCell>
        <mxCell id="K16QC3MpvvCwEl2vAyFW-3" value="GENERATE A RANDOM WORD" style="whiteSpace=wrap;html=1;rounded=1;" vertex="1" parent="1">
          <mxGeometry x="340" y="120" width="180" height="60" as="geometry" />
        </mxCell>
        <mxCell id="K16QC3MpvvCwEl2vAyFW-11" value="" style="edgeStyle=orthogonalEdgeStyle;rounded=0;orthogonalLoop=1;jettySize=auto;html=1;" edge="1" parent="1" source="K16QC3MpvvCwEl2vAyFW-5" target="K16QC3MpvvCwEl2vAyFW-10">
          <mxGeometry relative="1" as="geometry" />
        </mxCell>
        <mxCell id="K16QC3MpvvCwEl2vAyFW-5" value="GENERATE N SPACES FOR RANDOM WORD" style="whiteSpace=wrap;html=1;rounded=1;" vertex="1" parent="1">
          <mxGeometry x="340" y="230" width="180" height="60" as="geometry" />
        </mxCell>
        <mxCell id="K16QC3MpvvCwEl2vAyFW-15" value="" style="edgeStyle=orthogonalEdgeStyle;rounded=0;orthogonalLoop=1;jettySize=auto;html=1;" edge="1" parent="1" source="K16QC3MpvvCwEl2vAyFW-10" target="K16QC3MpvvCwEl2vAyFW-14">
          <mxGeometry relative="1" as="geometry" />
        </mxCell>
        <mxCell id="K16QC3MpvvCwEl2vAyFW-10" value="Prompt user for a character guess" style="whiteSpace=wrap;html=1;rounded=1;" vertex="1" parent="1">
          <mxGeometry x="340" y="340" width="180" height="60" as="geometry" />
        </mxCell>
        <mxCell id="K16QC3MpvvCwEl2vAyFW-29" value="" style="edgeStyle=orthogonalEdgeStyle;rounded=0;orthogonalLoop=1;jettySize=auto;html=1;" edge="1" parent="1" source="K16QC3MpvvCwEl2vAyFW-14" target="K16QC3MpvvCwEl2vAyFW-28">
          <mxGeometry relative="1" as="geometry" />
        </mxCell>
        <mxCell id="K16QC3MpvvCwEl2vAyFW-37" value="&lt;font style=&quot;font-size: 24px;&quot;&gt;YES&lt;/font&gt;" style="edgeLabel;html=1;align=center;verticalAlign=middle;resizable=0;points=[];" vertex="1" connectable="0" parent="K16QC3MpvvCwEl2vAyFW-29">
          <mxGeometry x="-0.5467" y="1" relative="1" as="geometry">
            <mxPoint x="-14" y="-21" as="offset" />
          </mxGeometry>
        </mxCell>
        <mxCell id="K16QC3MpvvCwEl2vAyFW-31" value="" style="edgeStyle=orthogonalEdgeStyle;rounded=0;orthogonalLoop=1;jettySize=auto;html=1;" edge="1" parent="1" source="K16QC3MpvvCwEl2vAyFW-14" target="K16QC3MpvvCwEl2vAyFW-30">
          <mxGeometry relative="1" as="geometry" />
        </mxCell>
        <mxCell id="K16QC3MpvvCwEl2vAyFW-36" value="&lt;font style=&quot;font-size: 24px;&quot;&gt;NO&lt;/font&gt;" style="edgeLabel;html=1;align=center;verticalAlign=middle;resizable=0;points=[];" vertex="1" connectable="0" parent="K16QC3MpvvCwEl2vAyFW-31">
          <mxGeometry x="-0.1404" y="-2" relative="1" as="geometry">
            <mxPoint x="4" y="-22" as="offset" />
          </mxGeometry>
        </mxCell>
        <mxCell id="K16QC3MpvvCwEl2vAyFW-14" value="Was user guess correct?&amp;nbsp;" style="rhombus;whiteSpace=wrap;html=1;rounded=1;" vertex="1" parent="1">
          <mxGeometry x="335" y="470" width="190" height="120" as="geometry" />
        </mxCell>
        <mxCell id="K16QC3MpvvCwEl2vAyFW-33" value="" style="edgeStyle=orthogonalEdgeStyle;rounded=0;orthogonalLoop=1;jettySize=auto;html=1;" edge="1" parent="1" source="K16QC3MpvvCwEl2vAyFW-28" target="K16QC3MpvvCwEl2vAyFW-32">
          <mxGeometry relative="1" as="geometry" />
        </mxCell>
        <mxCell id="K16QC3MpvvCwEl2vAyFW-28" value="Replace the blank Space" style="whiteSpace=wrap;html=1;rounded=1;" vertex="1" parent="1">
          <mxGeometry x="150" y="630" width="120" height="60" as="geometry" />
        </mxCell>
        <mxCell id="K16QC3MpvvCwEl2vAyFW-35" value="" style="edgeStyle=orthogonalEdgeStyle;rounded=0;orthogonalLoop=1;jettySize=auto;html=1;" edge="1" parent="1" source="K16QC3MpvvCwEl2vAyFW-30" target="K16QC3MpvvCwEl2vAyFW-34">
          <mxGeometry relative="1" as="geometry" />
        </mxCell>
        <mxCell id="K16QC3MpvvCwEl2vAyFW-30" value="Lose a life" style="whiteSpace=wrap;html=1;rounded=1;" vertex="1" parent="1">
          <mxGeometry x="600" y="630" width="120" height="60" as="geometry" />
        </mxCell>
        <mxCell id="K16QC3MpvvCwEl2vAyFW-45" style="edgeStyle=orthogonalEdgeStyle;rounded=0;orthogonalLoop=1;jettySize=auto;html=1;entryX=0;entryY=0.5;entryDx=0;entryDy=0;" edge="1" parent="1" source="K16QC3MpvvCwEl2vAyFW-32" target="K16QC3MpvvCwEl2vAyFW-10">
          <mxGeometry relative="1" as="geometry">
            <Array as="points">
              <mxPoint x="50" y="850" />
              <mxPoint x="50" y="370" />
            </Array>
          </mxGeometry>
        </mxCell>
        <mxCell id="K16QC3MpvvCwEl2vAyFW-46" value="&lt;font style=&quot;font-size: 24px;&quot;&gt;YES&lt;/font&gt;" style="edgeLabel;html=1;align=center;verticalAlign=middle;resizable=0;points=[];" vertex="1" connectable="0" parent="K16QC3MpvvCwEl2vAyFW-45">
          <mxGeometry x="-0.2132" y="-1" relative="1" as="geometry">
            <mxPoint x="29" y="1" as="offset" />
          </mxGeometry>
        </mxCell>
        <mxCell id="K16QC3MpvvCwEl2vAyFW-47" style="edgeStyle=orthogonalEdgeStyle;rounded=0;orthogonalLoop=1;jettySize=auto;html=1;" edge="1" parent="1" source="K16QC3MpvvCwEl2vAyFW-32">
          <mxGeometry relative="1" as="geometry">
            <mxPoint x="430" y="1030" as="targetPoint" />
          </mxGeometry>
        </mxCell>
        <mxCell id="K16QC3MpvvCwEl2vAyFW-48" value="&lt;font style=&quot;font-size: 24px;&quot;&gt;NO&lt;/font&gt;" style="edgeLabel;html=1;align=center;verticalAlign=middle;resizable=0;points=[];" vertex="1" connectable="0" parent="K16QC3MpvvCwEl2vAyFW-47">
          <mxGeometry x="-0.7525" y="4" relative="1" as="geometry">
            <mxPoint x="16" y="24" as="offset" />
          </mxGeometry>
        </mxCell>
        <mxCell id="K16QC3MpvvCwEl2vAyFW-32" value="Are there any more&amp;nbsp;&lt;div&gt;blanks left?&lt;/div&gt;" style="rhombus;whiteSpace=wrap;html=1;rounded=1;" vertex="1" parent="1">
          <mxGeometry x="112.5" y="790" width="195" height="120" as="geometry" />
        </mxCell>
        <mxCell id="K16QC3MpvvCwEl2vAyFW-40" value="" style="edgeStyle=orthogonalEdgeStyle;rounded=0;orthogonalLoop=1;jettySize=auto;html=1;entryX=1.017;entryY=0.367;entryDx=0;entryDy=0;entryPerimeter=0;exitX=0.939;exitY=0.521;exitDx=0;exitDy=0;exitPerimeter=0;" edge="1" parent="1" source="K16QC3MpvvCwEl2vAyFW-34" target="K16QC3MpvvCwEl2vAyFW-10">
          <mxGeometry relative="1" as="geometry">
            <mxPoint x="820" y="950" as="targetPoint" />
            <Array as="points">
              <mxPoint x="739" y="844" />
              <mxPoint x="840" y="844" />
              <mxPoint x="840" y="362" />
            </Array>
          </mxGeometry>
        </mxCell>
        <mxCell id="K16QC3MpvvCwEl2vAyFW-44" value="&lt;font style=&quot;font-size: 24px;&quot;&gt;YES&lt;/font&gt;" style="edgeLabel;html=1;align=center;verticalAlign=middle;resizable=0;points=[];" vertex="1" connectable="0" parent="K16QC3MpvvCwEl2vAyFW-40">
          <mxGeometry x="-0.3977" relative="1" as="geometry">
            <mxPoint x="30" y="-26" as="offset" />
          </mxGeometry>
        </mxCell>
        <mxCell id="K16QC3MpvvCwEl2vAyFW-42" value="" style="edgeStyle=orthogonalEdgeStyle;rounded=0;orthogonalLoop=1;jettySize=auto;html=1;" edge="1" parent="1" source="K16QC3MpvvCwEl2vAyFW-34" target="K16QC3MpvvCwEl2vAyFW-41">
          <mxGeometry relative="1" as="geometry" />
        </mxCell>
        <mxCell id="K16QC3MpvvCwEl2vAyFW-43" value="&lt;font style=&quot;font-size: 24px;&quot;&gt;NO&lt;/font&gt;" style="edgeLabel;html=1;align=center;verticalAlign=middle;resizable=0;points=[];" vertex="1" connectable="0" parent="K16QC3MpvvCwEl2vAyFW-42">
          <mxGeometry x="-0.3524" y="3" relative="1" as="geometry">
            <mxPoint x="29" y="13" as="offset" />
          </mxGeometry>
        </mxCell>
        <mxCell id="K16QC3MpvvCwEl2vAyFW-34" value="Are there anymore&amp;nbsp;&lt;div&gt;lives left?&amp;nbsp;&lt;/div&gt;" style="rhombus;whiteSpace=wrap;html=1;rounded=1;" vertex="1" parent="1">
          <mxGeometry x="570" y="796.25" width="180" height="107.5" as="geometry" />
        </mxCell>
        <mxCell id="K16QC3MpvvCwEl2vAyFW-41" value="" style="rounded=1;whiteSpace=wrap;html=1;" vertex="1" parent="1">
          <mxGeometry x="370" y="1040" width="120" height="60" as="geometry" />
        </mxCell>
      </root>
    </mxGraphModel>
  </diagram>
</mxfile>
